<?xml version="1.0" encoding="utf-8"?>
<!-- Generator: Adobe Illustrator 28.1.0, SVG Export Plug-In . SVG Version: 6.00 Build 0)  -->
<svg version="1.1" id="Capa_1" xmlns="http://www.w3.org/2000/svg" xmlns:xlink="http://www.w3.org/1999/xlink" x="0px" y="0px"
	 viewBox="0 0 16.3 16.3" style="enable-background:new 0 0 16.3 16.3;" xml:space="preserve">
<style type="text/css">
	.st0{fill:#FFFFFF;}
	.st1{clip-path:url(#SVGID_00000045613741372475049360000015807127722951504797_);}
	.st2{fill:#A11B17;}
</style>
<g>
	<circle class="st0" cx="8.1" cy="8.1" r="8.1"/>
	<g>
		<defs>
			<circle id="SVGID_1_" cx="8.1" cy="8.1" r="8.1"/>
		</defs>
		<use xlink:href="#SVGID_1_"  style="overflow:visible;fill:#FFFFFF;"/>
		<clipPath id="SVGID_00000116216517830427846670000017029534856263357839_">
			<use xlink:href="#SVGID_1_"  style="overflow:visible;"/>
		</clipPath>
		<g style="clip-path:url(#SVGID_00000116216517830427846670000017029534856263357839_);">
			<path class="st2" d="M14.2,3.9c0-0.1-0.1-0.2-0.2-0.3c-0.2-0.1-1.7-0.9-3.5-0.2C9.3,3.8,7.3,5.8,5.7,7.8c0,0-1.3-1.9-5,1.6
				c0,0,2.9-1,3.6,0.1c-0.2,0.2-0.4,0.5-0.5,0.7c-0.1,0.1-0.1,0.4,0,0.5l0.5,0.8c0.1,0.1,0.2,0.2,0.3,0.2c0.1,0,0.1,0,0.2,0
				c0.3-0.1,0.5-0.2,0.8-0.3c0.5,1.1-1.2,3.3-1.2,3.3c3.5-1.6,3.3-3.4,3.1-4c2.5-1,4.9-2.2,5.7-3.2C14.6,5.7,14.2,4,14.2,3.9z
				 M9.9,8.6c-1.2,0.6-2.8,1.2-4.6,1.9c1.1-0.8,1.2-1.2,1.2-1.2s-0.4-0.1-1.7,0.9c1.3-1.6,2.4-2.9,3.4-3.9l1.1-1
				c0.6-0.5,1.1-0.9,1.5-1C12,3.8,13,4.1,13.4,4.3c0,0.4,0,1.5-0.8,2.5c-0.2,0.3-0.7,0.7-1.4,1.1L9.9,8.6z"/>
			<path class="st2" d="M2.9,11.2c-0.3,0.2-0.3,0.5-0.2,0.8c0.1,0.1,0.3,0.2,0.4,0.2c0.1,0,0.2,0,0.3-0.1c0,0,0,0,0,0
				c0.2-0.2,0.3-0.5,0.1-0.8C3.4,11.1,3.1,11.1,2.9,11.2z"/>
			<path class="st2" d="M0.2,12.1c-0.3,0-0.5,0.3-0.5,0.6c0,0.3,0.2,0.5,0.5,0.5c0,0,0,0,0.1,0c0,0,0,0,0,0c0.3,0,0.5-0.3,0.5-0.6
				C0.7,12.3,0.5,12.1,0.2,12.1z"/>
			<path class="st2" d="M-1.2,12c-0.3-0.1-0.6,0.1-0.7,0.4C-2,12.7-1.8,13-1.5,13.1c0,0,0,0,0,0c0,0,0.1,0,0.1,0
				c0.3,0,0.5-0.2,0.6-0.4C-0.8,12.4-0.9,12.1-1.2,12z"/>
			<path class="st2" d="M1.9,11.8c-0.3-0.1-0.6,0.1-0.7,0.4c-0.1,0.3,0.1,0.6,0.4,0.7c0,0,0,0,0,0c0,0,0.1,0,0.1,0
				c0.3,0,0.5-0.2,0.6-0.4C2.4,12.2,2.2,11.9,1.9,11.8z"/>
		</g>
	</g>
</g>
</svg>
